HIERARCHY
ROOT Hips
{
	OFFSET 0.00000 0.00000 0.00000
	CHANNELS 6 Xposition Yposition Zposition Zrotation Yrotation Xrotation 
	JOINT RightUpLegDummy
	{
		OFFSET 0 0 0
		CHANNELS 3 Zrotation Yrotation Xrotation
		JOINT RightUpLeg
		{
			OFFSET -3.52197 -3.41223 0.04002
			CHANNELS 3 Zrotation Yrotation Xrotation
			JOINT RightLeg
			{
				OFFSET 0.00006 -17.42390 1.60435
				CHANNELS 3 Zrotation Yrotation Xrotation
				JOINT RightFoot
				{
					OFFSET 0.06153 -16.50078 -1.63901
					CHANNELS 3 Zrotation Yrotation Xrotation
					JOINT RightToes
					{
						OFFSET 0.00298 -1.73825 3.34613
						CHANNELS 3 Zrotation Yrotation Xrotation
						End Site
						{
							OFFSET 0.00480 -0.05416 3.85043
						}
					}
				}
			}
		}
	}
	JOINT SpineDummy
	{
		OFFSET 0 0 0
		CHANNELS 3 Zrotation Yrotation Xrotation
		JOINT Spine
		{
			OFFSET 0.00000 4.68130 0.00000
			CHANNELS 3 Zrotation Yrotation Xrotation
			JOINT Spine1
			{
				OFFSET -0.00000 10.10138 0.05002
				CHANNELS 3 Zrotation Yrotation Xrotation
				JOINT HEadDummy
				{
					OFFSET 0 0 0
					CHANNELS 3 Zrotation Yrotation Xrotation
					JOINT Head
					{
						OFFSET -0.00000 3.43865 0.00438
						CHANNELS 3 Zrotation Yrotation Xrotation
						End Site
						{
							OFFSET -0.11417 5.02924 0.98962
						}
					}
				}
				JOINT LeftShoulder1Dummy
				{
					OFFSET 0 0 0
					CHANNELS 3 Zrotation Yrotation Xrotation
					JOINT LeftShoulder1
					{
						OFFSET 3.53937 -0.14262 -0.08662
						CHANNELS 3 Zrotation Yrotation Xrotation
						JOINT LeftArm
						{
							OFFSET 4.04833 -0.00133 0.12681
							CHANNELS 3 Zrotation Yrotation Xrotation
							JOINT LeftForeArm
							{
								OFFSET 10.33880 -0.01036 -0.55515
								CHANNELS 3 Zrotation Yrotation Xrotation
								JOINT LeftHand
								{
									OFFSET 8.69677 0.07543 0.40060
									CHANNELS 3 Zrotation Yrotation Xrotation
									End Site
									{
										OFFSET 5.28377 -0.21905 0.59205
									}
								}
							}
						}
					}
				}
				JOINT RightShoulderDummy
				{
					OFFSET 0 0 0
					CHANNELS 3 Zrotation Yrotation Xrotation
					JOINT RightShoulder
					{
						OFFSET -3.53937 -0.14262 -0.08660
						CHANNELS 3 Zrotation Yrotation Xrotation
						JOINT RightArm
						{
							OFFSET -4.04833 -0.00133 0.12683
							CHANNELS 3 Zrotation Yrotation Xrotation
							JOINT RightForeArm
							{
								OFFSET -10.37987 -0.01039 -0.55511
								CHANNELS 3 Zrotation Yrotation Xrotation
								JOINT RightHand
								{
									OFFSET -8.67398 0.07538 0.40058
									CHANNELS 3 Zrotation Yrotation Xrotation
									End Site
									{
										OFFSET -5.24810 -0.21916 0.59204
									}
								}
							}
						}
					}
				}
			}
		}
	}
	JOINT LeftUpLegDummy
	{
		OFFSET 0 0 0
		CHANNELS 3 Zrotation Yrotation Xrotation
		JOINT LeftUpLeg
		{
			OFFSET 3.52197 -3.41223 0.04002
			CHANNELS 3 Zrotation Yrotation Xrotation
			JOINT LeftLeg
			{
				OFFSET -0.00012 -17.42399 1.60337
				CHANNELS 3 Zrotation Yrotation Xrotation
				JOINT LeftFoot
				{
					OFFSET -0.09972 -16.50070 -1.63802
					CHANNELS 3 Zrotation Yrotation Xrotation
					JOINT LeftToes
					{
						OFFSET -0.01575 -1.73823 3.34611
						CHANNELS 3 Zrotation Yrotation Xrotation
						End Site
						{
							OFFSET 0.03150 -0.01868 3.85031
						}
					}
				}
			}
		}
	}
}
MOTION
Frames: 6
Frame Time: 0.033333
0.6988 38.5131 -47.5704 178.0570 4.8113 172.1260 0.0000 0.0000 0.0000 -3.2089 -2.8112 -11.1390 -1.8366 -0.8170 55.8259 10.0283 -0.7142 -3.3676 0.0000 -0.0000 0.0000 0.0000 0.0000 0.0000 0.9339 0.4261 13.2676 1.6661 0.2508 -3.3397 -0.0000 0.0000 -0.0000 3.5100 -1.8840 2.0839 -0.0000 0.0000 -0.0000 -33.7697 -2.5112 2.3938 -42.3697 -13.0922 -16.3063 -11.7898 5.2734 42.0659 12.6832 -4.8518 -1.0810 -0.0000 0.0000 -0.0000 33.6824 5.0151 3.3811 39.2381 3.1235 -14.2007 10.9127 6.8599 18.5689 -12.0816 2.0524 -0.7582 0.0000 0.0000 0.0000 -5.7648 -0.3204 -8.0821 2.5398 5.8144 25.6219 8.3530 0.0123 -10.6334 0.0000 0.0000 -0.0000
0.7647 38.6199 -48.7227 179.0290 4.6738 171.9140 0.0000 0.0000 0.0000 -2.2395 -2.1185 -13.8673 -3.8844 -2.3189 51.5998 7.7534 -0.4322 -5.2488 0.0000 -0.0000 0.0000 0.0000 0.0000 0.0000 1.5526 -0.0078 13.4778 2.3848 -0.2740 -3.2762 -0.0000 0.0000 -0.0000 3.6694 -1.3855 1.8220 -0.0000 0.0000 -0.0000 -33.7051 -2.5231 2.3946 -42.5100 -14.7381 -14.5665 -12.4480 5.3021 41.4120 11.9360 -4.9522 -1.0237 -0.0000 0.0000 -0.0000 33.8004 5.0305 3.3974 39.0771 2.8641 -12.8581 10.4832 8.9367 15.0682 -11.5866 1.9425 -0.7159 0.0000 0.0000 0.0000 -4.8796 0.2030 -5.7887 2.4542 5.1705 25.6846 8.9269 0.1626 -12.4756 0.0000 0.0000 -0.0000
0.8611 38.7191 -49.8857 179.7420 4.5743 171.8000 0.0000 0.0000 0.0000 -1.6096 -1.8744 -15.8662 -5.4811 -4.2688 45.2537 6.9009 -0.2877 -6.9827 0.0000 -0.0000 0.0000 0.0000 0.0000 0.0000 1.8750 -0.3300 13.4438 3.0593 -0.7038 -3.0338 -0.0000 0.0000 -0.0000 3.8126 -0.8651 1.1506 -0.0000 0.0000 -0.0000 -33.7495 -2.5522 2.4089 -42.4851 -16.1193 -13.1961 -12.9321 5.1438 40.3188 11.9280 -5.1772 -1.0448 -0.0000 0.0000 -0.0000 34.0899 5.0764 3.4407 38.8202 2.7695 -12.1436 10.0696 10.1171 12.9812 -11.3711 2.0627 -0.7132 0.0000 0.0000 0.0000 -4.1098 0.6426 -3.2992 2.3840 4.8003 25.1176 8.9271 0.2872 -13.9432 0.0000 0.0000 -0.0000
0.9750 38.8074 -51.0407 -179.7750 4.4702 171.8680 0.0000 0.0000 0.0000 -1.2544 -1.8240 -17.1053 -6.0474 -6.3309 37.0446 6.6591 -0.3098 -6.4063 0.0000 -0.0000 0.0000 0.0000 0.0000 0.0000 2.0190 -0.5359 13.2031 3.6101 -1.0145 -2.7743 -0.0000 0.0000 -0.0000 3.9515 -0.4653 0.3617 -0.0000 0.0000 -0.0000 -33.6782 -2.5757 2.4139 -42.5837 -17.3281 -12.3587 -13.1164 4.1201 39.3453 12.6970 -5.5302 -1.1515 -0.0000 0.0000 -0.0000 34.2502 5.1019 3.4649 38.8157 2.6592 -12.3602 9.8238 10.4763 12.7337 -11.5278 2.2588 -0.7413 0.0000 0.0000 0.0000 -3.6206 0.8556 -0.8662 2.3982 4.5893 24.1896 9.0955 0.3967 -15.1741 0.0000 0.0000 -0.0000
1.0957 38.8854 -52.1830 -179.4990 4.5038 172.1000 0.0000 0.0000 0.0000 -1.0862 -1.4094 -17.4949 -5.2792 -7.8707 27.2612 6.2383 -0.4434 -3.4603 0.0000 -0.0000 0.0000 0.0000 0.0000 0.0000 2.1489 -0.6228 12.8656 3.9146 -1.1627 -2.6121 -0.0000 0.0000 -0.0000 4.1382 -0.2709 -0.3617 -0.0000 0.0000 -0.0000 -33.5365 -2.5706 2.4032 -42.7511 -18.2606 -11.9197 -13.1203 2.8834 38.4289 13.4403 -5.8084 -1.2521 -0.0000 0.0000 -0.0000 34.2378 5.1015 3.4637 39.0678 2.4440 -13.1532 9.7967 10.2227 13.3959 -11.6130 2.1997 -0.7415 0.0000 0.0000 0.0000 -3.3730 0.9404 1.4557 2.4916 4.6394 23.0234 9.2834 0.4970 -16.2568 0.0000 0.0000 -0.0000
1.2333 38.9865 -53.3135 -179.4090 4.5691 172.4140 0.0000 0.0000 0.0000 -1.0106 -0.8601 -17.0397 -3.8356 -8.9871 16.4312 6.4187 -0.6285 -0.2201 0.0000 -0.0000 0.0000 0.0000 0.0000 0.0000 2.2050 -0.6757 12.4680 4.0586 -1.2519 -2.5032 -0.0000 0.0000 -0.0000 4.3019 -0.2222 -0.9780 -0.0000 0.0000 -0.0000 -33.4759 -2.5600 2.3953 -42.7956 -18.7672 -11.6149 -13.1304 1.7485 37.5122 13.6568 -5.9080 -1.2844 -0.0000 0.0000 -0.0000 34.2467 5.1050 3.4658 39.2849 2.1128 -14.2129 9.9827 9.4443 14.3514 -11.4666 1.9981 -0.7134 0.0000 0.0000 0.0000 -3.1670 1.1495 4.0115 2.3899 4.7293 21.0681 9.1059 0.5376 -16.8144 0.0000 0.0000 -0.0000
